HIERARCHY
ROOT root
{
	OFFSET 0.000000 0.000000 0.000000
	CHANNELS 6 Xposition Yposition Zposition Zrotation Yrotation Xrotation
	JOINT lhip
	{
		OFFSET 0.058581 -0.082280 -0.017664
		CHANNELS 3 Zrotation Yrotation Xrotation
		JOINT lknee
		{
			OFFSET 0.043451 -0.386469 0.008037
			CHANNELS 3 Zrotation Yrotation Xrotation
			JOINT lankle
			{
				OFFSET -0.014790 -0.426874 -0.037428
				CHANNELS 3 Zrotation Yrotation Xrotation
				JOINT ltoe
				{
					OFFSET 0.041054 -0.060286 0.122042
					CHANNELS 3 Zrotation Yrotation Xrotation
					End Site
					{
						OFFSET 0.000000 0.000000 0.000000
					}
				}
			}
		}
	}
	JOINT rhip
	{
		OFFSET -0.060310 -0.090513 -0.013543
		CHANNELS 3 Zrotation Yrotation Xrotation
		JOINT rknee
		{
			OFFSET -0.043257 -0.383688 -0.004843
			CHANNELS 3 Zrotation Yrotation Xrotation
			JOINT rankle
			{
				OFFSET 0.019056 -0.420046 -0.034562
				CHANNELS 3 Zrotation Yrotation Xrotation
				JOINT rtoe
				{
					OFFSET -0.034840 -0.062106 0.130323
					CHANNELS 3 Zrotation Yrotation Xrotation
					End Site
					{
						OFFSET 0.000000 0.000000 0.000000
					}
				}
			}
		}
	}
	JOINT lowerback
	{
		OFFSET 0.004439 0.124404 -0.038385
		CHANNELS 3 Zrotation Yrotation Xrotation
		JOINT upperback
		{
			OFFSET 0.004488 0.137956 0.026820
			CHANNELS 3 Zrotation Yrotation Xrotation
			JOINT chest
			{
				OFFSET -0.002265 0.056032 0.002855
				CHANNELS 3 Zrotation Yrotation Xrotation
				JOINT lowerneck
				{
					OFFSET -0.013390 0.211636 -0.033468
					CHANNELS 3 Zrotation Yrotation Xrotation
					JOINT upperneck
					{
						OFFSET 0.010113 0.088937 0.050410
						CHANNELS 3 Zrotation Yrotation Xrotation
						End Site
						{
							OFFSET 0.000000 0.000000 0.000000
						}
					}
				}
				JOINT lclavicle
				{
					OFFSET 0.071702 0.114000 -0.018898
					CHANNELS 3 Zrotation Yrotation Xrotation
					JOINT lshoulder
					{
						OFFSET 0.122921 0.045205 -0.019046
						CHANNELS 3 Zrotation Yrotation Xrotation
						JOINT lelbow
						{
							OFFSET 0.255332 -0.015649 -0.022946
							CHANNELS 3 Zrotation Yrotation Xrotation
							JOINT lwrist
							{
								OFFSET 0.265709 0.012698 -0.007375
								CHANNELS 3 Zrotation Yrotation Xrotation
								End Site
								{
									OFFSET 0.000000 0.000000 0.000000
								}
							}
						}
					}
				}
				JOINT rclavicle
				{
					OFFSET -0.082954 0.112472 -0.023707
					CHANNELS 3 Zrotation Yrotation Xrotation
					JOINT rshoulder
					{
						OFFSET -0.113228 0.046853 -0.008472
						CHANNELS 3 Zrotation Yrotation Xrotation
						JOINT relbow
						{
							OFFSET -0.260127 -0.014369 -0.031269
							CHANNELS 3 Zrotation Yrotation Xrotation
							JOINT rwrist
							{
								OFFSET -0.269108 0.006794 -0.006027
								CHANNELS 3 Zrotation Yrotation Xrotation
								End Site
								{
									OFFSET 0.000000 0.000000 0.000000
								}
							}
						}
					}
				}
			}
		}
	}
}
MOTION
Frames: 5
Frame Time: 0.033333
0.221011 0.528077 0.872766 -49.724534 4.811877 94.996462 15.658691 21.507039 -49.623184 -12.103567 24.481678 71.403763 -4.943934 -2.248920 -16.538039 0.000000 -0.000000 0.000000 -11.784262 -20.445155 -40.510116 -2.353387 -24.297786 76.174970 5.025517 -0.385332 -12.854171 0.000000 -0.000000 0.000000 -1.815832 5.510448 46.044250 1.513871 -0.746792 -6.020914 3.113374 0.173626 1.094378 0.900209 2.656500 -9.431941 10.037522 -1.597393 -9.803341 -20.636580 -5.239107 -3.991297 -11.475328 -2.809176 -11.160107 83.119739 -53.509761 -79.413306 42.784124 -12.905346 -10.818093 24.576013 8.074009 1.918592 40.546316 -0.452612 -7.181015 -26.587184 27.968318 -42.769954 -28.354910 7.878757 -7.389567 
0.183591 0.570745 0.854193 -51.498509 7.493967 94.420518 15.527935 19.970678 -49.423777 -16.335016 20.104695 68.050065 -5.075779 -5.580552 -9.610817 0.000000 -0.000000 0.000000 -15.247621 -19.174847 -38.863390 -2.967658 -20.344159 70.090376 1.543328 -4.676777 -15.408393 0.000000 -0.000000 0.000000 -0.491690 5.390944 47.019254 1.883807 -0.106650 -5.909380 3.555176 0.270179 0.942963 1.359165 3.413054 -11.801573 9.294795 -1.038781 -9.149590 -21.641262 -4.716262 -3.628651 -12.865211 -3.952035 -11.316702 85.104871 -52.459843 -79.463403 43.734444 -12.115436 -11.605760 25.509832 8.739959 2.231101 41.452661 1.139448 -7.420010 -27.099300 23.158425 -44.472914 -27.517460 6.766983 -7.516000 
0.146557 0.611217 0.827901 -53.757967 9.733210 93.821879 15.994718 19.416446 -47.614631 -10.892291 17.997173 67.461591 7.340034 7.231016 -28.298827 0.000000 -0.000000 0.000000 -18.550361 -19.741571 -38.000935 -2.194200 -15.464131 62.271271 1.175252 -10.564192 -15.678974 0.000000 -0.000000 0.000000 0.124713 5.165988 47.813202 1.771443 1.031225 -7.641662 4.562489 0.255192 2.456883 2.051964 1.972225 -14.824022 8.085763 2.750116 -7.048838 -23.266802 -4.044280 -2.175782 -14.404600 -6.350617 -14.216478 87.033535 -53.567281 -79.189476 47.270319 -10.506457 -12.530631 26.520083 8.671224 3.712780 42.065092 2.632764 -7.438846 -28.769349 21.423386 -47.797593 -27.700620 6.803120 -6.920059 
0.110151 0.655815 0.802683 -55.227633 10.300996 93.118451 20.063236 18.674068 -47.937021 -8.429576 15.488062 69.805079 6.807594 9.879967 -33.980364 0.000000 -0.000000 0.000000 -22.803957 -21.648198 -36.921246 -3.315821 -13.122165 54.860039 2.535167 -12.207151 -13.583975 0.000000 -0.000000 0.000000 0.107546 5.758761 48.756164 2.144619 0.778588 -6.746759 5.475947 -0.472849 1.997533 2.070485 1.937390 -17.368454 8.232326 5.789399 -7.777373 -25.168961 -4.962668 -0.122307 -15.414833 -7.634293 -15.860658 88.274232 -52.363187 -79.680113 49.545187 -9.843205 -13.172354 29.006987 9.420590 4.250239 41.087124 2.851218 -7.159064 -30.837634 21.843696 -49.914165 -27.423446 6.847407 -6.727602 
0.069714 0.702401 0.786389 -56.542884 8.304520 90.949713 24.462604 19.959693 -45.733454 -8.684434 14.761488 71.666956 3.633409 7.262777 -32.624590 0.000000 -0.000000 0.000000 -27.941907 -24.722662 -34.781835 -3.445565 -12.115969 49.901883 3.879878 -10.663101 -14.435359 0.000000 -0.000000 0.000000 -0.279673 7.316249 50.183340 2.162034 -0.633153 -4.108061 5.625581 -1.163835 0.977907 0.852416 4.945025 -19.301309 8.183175 5.836912 -7.828460 -24.786609 -6.332082 0.386610 -17.957783 -10.505625 -15.996356 84.598624 -53.292937 -76.872926 50.793582 -7.651879 -15.575735 30.193773 9.727201 4.822674 41.947597 3.535696 -6.712920 -31.820797 22.829603 -49.057231 -27.521234 7.103085 -5.123264 
